<svg width="24" height="24" viewBox="0 0 24 24" fill="none" xmlns="http://www.w3.org/2000/svg">
<g clip-path="url(#clip0_0_46)">
<path d="M4.5 13V11.5C4.5 7.36 7.86 4 12 4C16.14 4 19.5 7.36 19.5 11.5V13" stroke="#E8793A" stroke-width="1.8" stroke-linecap="round"/>
<path d="M4.5 12.5H6.5C7.05 12.5 7.5 12.95 7.5 13.5V17C7.5 17.55 7.05 18 6.5 18H5.5C4.95 18 4.5 17.55 4.5 17V12.5Z" stroke="#E8793A" stroke-width="1.8"/>
<path d="M19.5 12.5H17.5C16.95 12.5 16.5 12.95 16.5 13.5V17C16.5 17.55 16.95 18 17.5 18H18.5C19.05 18 19.5 17.55 19.5 17V12.5Z" stroke="#E8793A" stroke-width="1.8"/>
<path d="M16.5 18C16.5 19.1 15.6 20 14.5 20H12.5" stroke="#E8793A" stroke-width="1.8" stroke-linecap="round"/>
</g>
<defs>
<clipPath id="clip0_0_46">
<rect width="24" height="24" fill="white"/>
</clipPath>
</defs>
</svg>
