<svg width="18" height="18" viewBox="0 0 18 18" fill="none" xmlns="http://www.w3.org/2000/svg">
<path d="M17.4375 4.5H15.75V3.9375C15.75 3.64453 15.668 3.375 15.5039 3.12891C15.3398 2.88281 15.1172 2.70703 14.8359 2.60156C14.3672 2.44922 13.8926 2.31445 13.4121 2.19727C12.9316 2.0918 12.4453 2.00098 11.9531 1.9248C11.4609 1.84863 10.9688 1.79297 10.4766 1.75781C9.98438 1.71094 9.49219 1.6875 9 1.6875C8.50781 1.6875 8.01562 1.71094 7.52344 1.75781C7.03125 1.79297 6.53906 1.84863 6.04688 1.9248C5.55469 2.00098 5.06836 2.0918 4.58789 2.19727C4.10742 2.31445 3.63281 2.44922 3.16406 2.60156C2.88281 2.70703 2.66016 2.88281 2.49609 3.12891C2.33203 3.375 2.25 3.64453 2.25 3.9375V4.5H0.5625C0.410156 4.5 0.27832 4.55566 0.166992 4.66699C0.0556641 4.77832 0 4.91016 0 5.0625V8.08594C0 8.17969 0.0351562 8.26172 0.105469 8.33203C0.175781 8.40234 0.257812 8.4375 0.351562 8.4375H1.33594C1.42969 8.4375 1.51172 8.40234 1.58203 8.33203C1.65234 8.26172 1.6875 8.17969 1.6875 8.08594V5.625H2.25V14.0625C2.25 14.3789 2.3584 14.6455 2.5752 14.8623C2.79199 15.0791 3.05859 15.1875 3.375 15.1875V15.75C3.375 15.9023 3.43066 16.0342 3.54199 16.1455C3.65332 16.2568 3.78516 16.3125 3.9375 16.3125H5.0625C5.21484 16.3125 5.34668 16.2568 5.45801 16.1455C5.56934 16.0342 5.625 15.9023 5.625 15.75V15.1875H12.375V15.75C12.375 15.9023 12.4277 16.0342 12.5332 16.1455C12.6387 16.2568 12.7734 16.3125 12.9375 16.3125H14.0625C14.2148 16.3125 14.3467 16.2568 14.458 16.1455C14.5693 16.0342 14.625 15.9023 14.625 15.75V15.1875C14.9297 15.1875 15.1934 15.0791 15.416 14.8623C15.6387 14.6455 15.75 14.3789 15.75 14.0625V5.625H16.3125V8.08594C16.3125 8.17969 16.3477 8.26172 16.418 8.33203C16.4883 8.40234 16.5703 8.4375 16.6641 8.4375H17.6484C17.7422 8.4375 17.8242 8.40234 17.8945 8.33203C17.9648 8.26172 18 8.17969 18 8.08594V5.0625C18 4.91016 17.9443 4.77832 17.833 4.66699C17.7217 4.55566 17.5898 4.5 17.4375 4.5ZM7.17188 12.8145C7.16016 12.8496 7.13672 12.8789 7.10156 12.9023C7.06641 12.9258 7.03125 12.9375 6.99609 12.9375H4.79883C4.68164 12.9258 4.5791 12.873 4.49121 12.7793C4.40332 12.6855 4.36523 12.5742 4.37695 12.4453V12.0234C4.36523 11.8945 4.40332 11.7832 4.49121 11.6895C4.5791 11.5957 4.68164 11.543 4.79883 11.5312H5.41406C5.77734 11.5312 6.11426 11.625 6.4248 11.8125C6.73535 12 6.97852 12.252 7.1543 12.5684C7.17773 12.6035 7.18945 12.6445 7.18945 12.6914C7.18945 12.7383 7.18359 12.7793 7.17188 12.8145ZM13.623 12.4453C13.6348 12.5742 13.5996 12.6855 13.5176 12.7793C13.4355 12.873 13.3301 12.9258 13.2012 12.9375H11.0039C10.9688 12.9375 10.9365 12.9258 10.9072 12.9023C10.8779 12.8789 10.8516 12.8496 10.8281 12.8145C10.8164 12.7793 10.8135 12.7412 10.8193 12.7002C10.8252 12.6592 10.8398 12.6211 10.8633 12.5859C11.0273 12.2578 11.2646 12 11.5752 11.8125C11.8857 11.625 12.2227 11.5312 12.5859 11.5312H13.2012C13.3301 11.543 13.4355 11.5957 13.5176 11.6895C13.5996 11.7832 13.6348 11.8945 13.623 12.0234V12.4453ZM14.625 9.43945C14.625 9.49805 14.6104 9.54785 14.5811 9.58887C14.5518 9.62988 14.5078 9.66211 14.4492 9.68555C13.5586 9.89648 12.6562 10.043 11.7422 10.125C10.8281 10.207 9.91406 10.2246 9 10.1777C8.08594 10.2246 7.17188 10.207 6.25781 10.125C5.34375 10.043 4.44141 9.89648 3.55078 9.68555C3.50391 9.67383 3.46289 9.64453 3.42773 9.59766C3.39258 9.55078 3.375 9.49805 3.375 9.43945V4.37695C3.375 4.31836 3.39551 4.25977 3.43652 4.20117C3.47754 4.14258 3.52734 4.10156 3.58594 4.07812C4.46484 3.84375 5.3584 3.66797 6.2666 3.55078C7.1748 3.43359 8.08594 3.375 9 3.375C9.92578 3.375 10.8486 3.43652 11.7686 3.55957C12.6885 3.68262 13.5938 3.86133 14.4844 4.0957C14.5312 4.13086 14.5664 4.17188 14.5898 4.21875C14.6133 4.26562 14.625 4.31836 14.625 4.37695V9.43945Z" fill="#AAAAAA"/>
</svg>
